# xmcd
#
# Track frame offsets:
# 150
# 25994
# 48993
# 76945
# 91892
# 103681
# 127531
# 138489
# 163830
# 184057
# 209466
#
# Disc length: 3107 seconds
#
# Revision: 1
# Processed by: cddbd v1.5.1PL2 Copyright (c) Steve Scherf et al.
# Submitted via: CedeCatalogueitor 2.6.0.6 http://personales.ya.com/cdcatalogueitor
#
DISCID=8a0c210b
DTITLE=Varios - Musicas Del Mundo
DYEAR=1900
DGENRE=
TTITLE0=Yis Dance (Chinese)
TTITLE1=Spring (Chinese)
TTITLE2=African Circle (African)
TTITLE3=Akadinda (African)
TTITLE4=Irish Landscape (Celtic)
TTITLE5=Pirika Pirika (Japan)
TTITLE6=Oboro (Japan)
TTITLE7=The Five Rivers (Australia)
TTITLE8=The Cockatoo's Flight (Australia)
TTITLE9=Moonlight Part 1 (India)
TTITLE10=Moonlight Part 2 (India)
EXTD=
EXTT0=
EXTT1=
EXTT2=
EXTT3=
EXTT4=
EXTT5=
EXTT6=
EXTT7=
EXTT8=
EXTT9=
EXTT10=
PLAYORDER=
